<mxfile host="Electron" agent="Mozilla/5.0 (Macintosh; Intel Mac OS X 10_15_7) AppleWebKit/537.36 (KHTML, like Gecko) draw.io/24.7.17 Chrome/128.0.6613.36 Electron/32.0.1 Safari/537.36" version="24.7.17">
  <diagram name="Page-1" id="bR_ZrZwPbjcuMmH0yNfc">
    <mxGraphModel dx="1195" dy="756" grid="1" gridSize="10" guides="1" tooltips="1" connect="1" arrows="1" fold="1" page="1" pageScale="1" pageWidth="3000" pageHeight="3000" math="0" shadow="0">
      <root>
        <mxCell id="0" />
        <mxCell id="1" parent="0" />
        <mxCell id="KkG0gUKBAMz0gUutYyn7-71" value="" style="rounded=1;whiteSpace=wrap;html=1;strokeColor=none;fillColor=#CCCCFF;arcSize=4;fontColor=#ffffff;opacity=50;" vertex="1" parent="1">
          <mxGeometry x="120" y="110" width="530" height="650" as="geometry" />
        </mxCell>
        <mxCell id="KkG0gUKBAMz0gUutYyn7-72" value="&lt;div style=&quot;text-align: justify; padding-left: 5px; padding-right: 5px;&quot;&gt;&lt;div&gt;&lt;strong style=&quot;background-color: initial;&quot; data-end=&quot;80&quot; data-start=&quot;74&quot;&gt;Q:&lt;/strong&gt;&lt;span style=&quot;background-color: initial;&quot;&gt; Given the current slippage of&amp;nbsp;&lt;/span&gt;&lt;span style=&quot;background-color: initial; color: rgb(0, 0, 255);&quot;&gt;{&lt;/span&gt;&lt;i style=&quot;background-color: initial; color: rgb(0, 0, 255);&quot;&gt;slippage&lt;/i&gt;&lt;span style=&quot;background-color: initial; color: rgb(0, 0, 255);&quot;&gt;}&lt;/span&gt;&lt;span style=&quot;background-color: initial;&quot;&gt;, should we proceed with opening the position in sync with the tracked wallet?&lt;/span&gt;&lt;br&gt;&lt;/div&gt;&lt;/div&gt;" style="rounded=1;whiteSpace=wrap;html=1;strokeColor=none;fillColor=#CCCCFF;align=left;" vertex="1" parent="1">
          <mxGeometry x="130" y="130" width="510" height="50" as="geometry" />
        </mxCell>
        <mxCell id="KkG0gUKBAMz0gUutYyn7-84" value="" style="shape=image;verticalLabelPosition=bottom;labelBackgroundColor=default;verticalAlign=top;aspect=fixed;imageAspect=0;image=https://openclipart.org/image/800px/247320;" vertex="1" parent="1">
          <mxGeometry x="127" y="115" width="26" height="26" as="geometry" />
        </mxCell>
        <mxCell id="KkG0gUKBAMz0gUutYyn7-85" value="&lt;blockquote style=&quot;margin: 0 0 0 40px; border: none; padding: 0px;&quot;&gt;&lt;div style=&quot;text-align: justify; padding-left: 5px; padding-right: 5px;&quot;&gt;&lt;div&gt;&lt;strong style=&quot;background-color: initial;&quot; data-end=&quot;80&quot; data-start=&quot;74&quot;&gt;&lt;span style=&quot;white-space: pre;&quot;&gt;&#x9;&lt;/span&gt;A:&lt;/strong&gt;&lt;span style=&quot;background-color: initial;&quot;&gt;&amp;nbsp;Yes, [Explanations]&lt;/span&gt;&lt;/div&gt;&lt;/div&gt;&lt;/blockquote&gt;" style="rounded=1;whiteSpace=wrap;html=1;strokeColor=none;fillColor=#CCCCFF;align=left;" vertex="1" parent="1">
          <mxGeometry x="130" y="210" width="250" height="20" as="geometry" />
        </mxCell>
        <mxCell id="KkG0gUKBAMz0gUutYyn7-87" value="" style="shape=image;verticalLabelPosition=bottom;labelBackgroundColor=default;verticalAlign=top;aspect=fixed;imageAspect=0;image=data:image/png,iVBORw0KGgoAAAANSUhEUgAAAPoAAAD6CAYAAACI7Fo9AAAACXBIWXMAAA7EAAAOxAGVKw4bAAAH8UlEQVR4nO3dz4tkVxkG4KoQRslA/oFgb0YYstFkEMZFw4CYwU1AXThbIQVqD4zIgBoXHdKLRAMTycB0FEpwOy5EyEY74qoFV/nhJkZcFbhzFUjQIJRLxfOJZ+rerls97/MsD111T93m5cDLuffM17P1DHi4PTL1BICzJ+gQQNAhgKBDAEGHAIIOAQQdAgg6BBB0CCDoEEDQIYCgQwBBhwCCDgEEHQIIOgQQdAgg6BBA0CGAoEMAQYcAgg4BBB0CCDoEEHQIIOgQQNAhgKBDAEGHAI9OPQH+v+P9+bk78vbgdD2feg78mxUdAgg6BBB0CCDoEEAZN6Hekm2xWDRjF/b2Nr7ux6tVM7Yqxj69v7/x9x3P+n6b0m47rOgQQNAhgKBDAEGHAMq4Lekt3q5fv775RToLugvVR4uxqmS7UBR01fdVBWJV+FWlnYJufFZ0CCDoEEDQIYCgQ4D5enbunoDceVXxdnB01P5hVZ4VhVVVilXK3XK9O+g6r1uVcWPP+fjwsBlT0A1jRYcAgg4BBB0CCDoEsDNuoN4db385PW3GysdAi3Kq2nlWlV1DrlEpH13t+uT4yoJTQdfNig4BBB0CCDoEEHQIoIw7A9UuuEHl2dg6d7KdnJw0Y73zWy6XzVjvfake1a3mQj8rOgQQdAgg6BBA0CGAx1QfQO8uuN7SqSqsGHb/7JarWdEhgKBDAEGHAIIOAeyMG6g6qKB651nl6y/c2/i6jxWPmn5UFFZT/V2vn794sxlTXI7Pig4BBB0CCDoEEHQIoIwbqHqvWlXQDSmTdr14G7ugq+6VR1eHsaJDAEGHAIIOAQQdAijjzkBVJvXughtS2lUl4NiF2tjzq+5LtVuOYazoEEDQIYCgQwBBhwDeGfcAet8Zd7M9l2EyH765+aOwF5/ZnVLsXue5Ft4ZV7OiQwBBhwCCDgEEHQLYGTfQP594uhh9uxlZr6cpPefzzbupXZpzdZ8f/Wt7n6lZ0SGAoEMAQYcAgg4BlHEPoCqEqneZze63JdHHf/59M/b8T3/ZjB0cHDRjx8fHzdidO3easdu3b7dzKVS75apdcNX39V6393e8/I2v/s95/qf6nXFdH2VmRYcIgg4BBB0CCDoEUMYNtFe8a63Xl596ohm7dOlSM3blkeeasd7ibWzVdav5Vb+j+r29htxnrOgQQdAhgKBDAEGHAMq4M/DajXYH3Scuty89+8f7m79crirA9j7z62bs1Y2vUJdnqz9+aePvu3r1ajNW3Zfq/jGMFR0CCDoEEHQIIOgQwAEOA929caXrBlaPWT753I9Gn89/W7//xsafnV9+dsSZ1N772feasZPO509v3X/LYQ2drOgQQNAhgKBDAEGHAHbGDVQVQr0FXfXutseqxzGrsdWq5xKzu4eHXX9X6S7yOuf3UTG26vwdirdhrOgQQNAhgKBDAEGHAHbGbUlV0FW75ap3o5UFXXWNonj77Ld+3PXZyruvf6cZu3V01IxVJVulKt6qXXCKt/FZ0SGAoEMAQYcAgg4B7IzbknIH3axvB91isdj4uteuXdv4s+++3o71Fm/L5bLr7xRv22FFhwCCDgEEHQIIOgSwM+4cGPJeut73r439fUq23WJFhwCCDgEEHQIIOgRQxj1Eeku7IZRs55MVHQIIOgQQdAgg6BBAGbdj5rP5xv+Qp377izGnUnrni1/b+LPr2VqRNxErOgQQdAgg6BBA0CGAMm5CQ4q36qCH3pNJq9Kut2Qbct2Kgm47rOgQQNAhgKBDAEGHAA5w2DG9ZVc11vvZd05eHXUuY3+W8VnRIYCgQwBBhwCCDgHsjNuS3l1w2yixjv7eHsJw+Mn2sIYhhvwOu+XGZ0WHAIIOAQQdAgg6BLAzbscMKd56C7DT09NRv69iF9xusaJDAEGHAIIOAQQdAijjzsAu7YKr7O/vN2PtXrnx9f7e6v7ZLTeMFR0CCDoEEHQIIOgQQBk3obF3wW2D3XLnkxUdAgg6BBB0CCDoEEAZtyW95dnDXFi5B9OxokMAQYcAgg4BBB0CKOPOwEs3v9+M/eDeD0e9xjYKq7Gv0ft91f2b3Rt1KnGs6BBA0CGAoEMAQYcAyrgzcPFvv2nGyoLud0VB917fNYbsMustxUbfyfZkO/TSF9r7Ut2/2ezlvmtQsqJDAEGHAIIOAQQdAijjtuQrV9ozHZ6/9UYzNr/8bNf3ncedcetftb/3T8XJrifbOE0ijBUdAgg6BBB0CCDoEGC+nnUd/MlAd2+0bdxisWj+7uIzN/u+8LufHzyn0bzyh64/+/DN9lnT5XLZjN26/5aTU0dmRYcAgg4BBB0CCDoEUMZNqCroKt++//ZZT2V0r914uuvvFG/bYUWHAIIOAQQdAgg6BFDGnQPz2XzUf9J6tm4KsG1cg+lY0SGAoEMAQYcAgg4BBB0CCDoEEHQIIOgQQNAhgKBDAEGHAIIOAQQdAgg6BHCa6o4Z+3HRqVS/w6Or07GiQwBBhwCCDgEEHQIo4ybUW7zt7e01Y6vVqhn7yeMvNmPLD9rTSiufm32qGVs83p72+s0PXth4fgq66VjRIYCgQwBBhwCCDgGUcTumKrbOo96Cju2wokMAQYcAgg4BBB0COE11QlM9krqN01SHzIXxWdEhgKBDAEGHAIIOAZRxEMCKDgEEHQIIOgQQdAgg6BBA0CGAoEMAQYcAgg4BBB0CCDoEEHQIIOgQQNAhwL8A7VYi/CpYn4cAAAAASUVORK5CYII=;" vertex="1" parent="1">
          <mxGeometry x="120" y="190" width="40" height="40" as="geometry" />
        </mxCell>
        <mxCell id="KkG0gUKBAMz0gUutYyn7-89" value="&lt;b&gt;Prompt 1: Slippage&lt;/b&gt;" style="text;html=1;align=center;verticalAlign=middle;whiteSpace=wrap;rounded=0;" vertex="1" parent="1">
          <mxGeometry x="153" y="115" width="117" height="10" as="geometry" />
        </mxCell>
        <mxCell id="KkG0gUKBAMz0gUutYyn7-90" value="&lt;b&gt;Reply 1: Slippage&lt;/b&gt;" style="text;html=1;align=center;verticalAlign=middle;whiteSpace=wrap;rounded=0;" vertex="1" parent="1">
          <mxGeometry x="153" y="194" width="107" height="10" as="geometry" />
        </mxCell>
        <mxCell id="KkG0gUKBAMz0gUutYyn7-100" value="&lt;div style=&quot;text-align: justify; padding-left: 5px; padding-right: 5px;&quot;&gt;&lt;div&gt;&lt;strong style=&quot;background-color: initial;&quot; data-end=&quot;80&quot; data-start=&quot;74&quot;&gt;Q:&lt;/strong&gt;&lt;span style=&quot;background-color: initial;&quot;&gt; Given the following information&lt;/span&gt;&lt;span style=&quot;background-color: initial;&quot;&gt;, should we proceed with opening the position in sync with the tracked wallet?&lt;/span&gt;&lt;/div&gt;&lt;div&gt;&lt;span style=&quot;background-color: initial;&quot;&gt;&lt;br&gt;&lt;/span&gt;&lt;/div&gt;&lt;div&gt;&lt;span style=&quot;background-color: initial;&quot;&gt;- Tracked wallet&#39;s position size:&amp;nbsp;&lt;/span&gt;&lt;span style=&quot;background-color: initial; color: rgb(0, 0, 255);&quot;&gt;{&lt;/span&gt;&lt;i style=&quot;background-color: initial; color: rgb(0, 0, 255);&quot;&gt;size&lt;/i&gt;&lt;span style=&quot;background-color: initial; color: rgb(0, 0, 255);&quot;&gt;}&lt;/span&gt;&lt;span style=&quot;background-color: initial;&quot;&gt;&amp;nbsp;&lt;/span&gt;&lt;br&gt;&lt;/div&gt;&lt;div&gt;&lt;span style=&quot;background-color: initial;&quot;&gt;- Our available funding:&amp;nbsp;&lt;/span&gt;&lt;span style=&quot;background-color: initial; color: rgb(0, 0, 255);&quot;&gt;{&lt;/span&gt;&lt;i style=&quot;background-color: initial; color: rgb(0, 0, 255);&quot;&gt;funds&lt;/i&gt;&lt;span style=&quot;background-color: initial; color: rgb(0, 0, 255);&quot;&gt;}&lt;/span&gt;&lt;span style=&quot;background-color: initial;&quot;&gt;&lt;br&gt;&lt;/span&gt;&lt;/div&gt;&lt;div&gt;- Current exposure to this wallet&lt;font color=&quot;#0000ff&quot;&gt;: {&lt;i&gt;tracked funds&lt;/i&gt;}&lt;/font&gt;&lt;/div&gt;&lt;/div&gt;" style="rounded=1;whiteSpace=wrap;html=1;strokeColor=none;fillColor=#CCCCFF;align=left;" vertex="1" parent="1">
          <mxGeometry x="130" y="262" width="510" height="108" as="geometry" />
        </mxCell>
        <mxCell id="KkG0gUKBAMz0gUutYyn7-101" value="" style="shape=image;verticalLabelPosition=bottom;labelBackgroundColor=default;verticalAlign=top;aspect=fixed;imageAspect=0;image=https://openclipart.org/image/800px/247320;" vertex="1" parent="1">
          <mxGeometry x="127" y="247" width="26" height="26" as="geometry" />
        </mxCell>
        <mxCell id="KkG0gUKBAMz0gUutYyn7-102" value="&lt;b&gt;Prompt 2: Position Size&lt;/b&gt;" style="text;html=1;align=center;verticalAlign=middle;whiteSpace=wrap;rounded=0;" vertex="1" parent="1">
          <mxGeometry x="153" y="247" width="137" height="10" as="geometry" />
        </mxCell>
        <mxCell id="KkG0gUKBAMz0gUutYyn7-105" value="" style="endArrow=classicThin;html=1;rounded=0;endFill=1;" edge="1" parent="1">
          <mxGeometry width="50" height="50" relative="1" as="geometry">
            <mxPoint x="293" y="230" as="sourcePoint" />
            <mxPoint x="293" y="263" as="targetPoint" />
          </mxGeometry>
        </mxCell>
        <mxCell id="KkG0gUKBAMz0gUutYyn7-132" value="" style="rounded=1;whiteSpace=wrap;html=1;dashed=1;strokeWidth=2;fillColor=none;" vertex="1" parent="1">
          <mxGeometry x="130" y="211" width="250" height="18" as="geometry" />
        </mxCell>
        <mxCell id="KkG0gUKBAMz0gUutYyn7-150" value="&lt;blockquote style=&quot;margin: 0 0 0 40px; border: none; padding: 0px;&quot;&gt;&lt;div style=&quot;text-align: justify; padding-left: 5px; padding-right: 5px;&quot;&gt;&lt;div&gt;&lt;strong style=&quot;background-color: initial;&quot; data-end=&quot;80&quot; data-start=&quot;74&quot;&gt;&lt;span style=&quot;white-space: pre;&quot;&gt;&#x9;&lt;/span&gt;A:&lt;/strong&gt;&lt;span style=&quot;background-color: initial;&quot;&gt;&amp;nbsp;No&lt;/span&gt;&lt;span style=&quot;color: rgba(0, 0, 0, 0); font-family: monospace; font-size: 0px; text-align: start; text-wrap: nowrap; background-color: initial;&quot;&gt;%3CmxGraphModel%3E%3Croot%3E%3CmxCell%20id%3D%220%22%2F%3E%3CmxCell%20id%3D%221%22%20parent%3D%220%22%2F%3E%3CmxCell%20id%3D%222%22%20value%3D%22%22%20style%3D%22rounded%3D1%3BwhiteSpace%3Dwrap%3Bhtml%3D1%3Bdashed%3D1%3BstrokeWidth%3D2%3BfillColor%3Dnone%3B%22%20vertex%3D%221%22%20parent%3D%221%22%3E%3CmxGeometry%20x%3D%22390%22%20y%3D%22211%22%20width%3D%22250%22%20height%3D%2218%22%20as%3D%22geometry%22%2F%3E%3C%2FmxCell%3E%3C%2Froot%3E%3C%2FmxGraphModel%3E&lt;/span&gt;&lt;span style=&quot;background-color: initial;&quot;&gt;, [Explanations]&lt;/span&gt;&lt;/div&gt;&lt;/div&gt;&lt;/blockquote&gt;" style="rounded=1;whiteSpace=wrap;html=1;strokeColor=none;fillColor=#CCCCFF;align=left;" vertex="1" parent="1">
          <mxGeometry x="390" y="210" width="250" height="20" as="geometry" />
        </mxCell>
        <mxCell id="KkG0gUKBAMz0gUutYyn7-151" value="" style="shape=image;verticalLabelPosition=bottom;labelBackgroundColor=default;verticalAlign=top;aspect=fixed;imageAspect=0;image=data:image/png,iVBORw0KGgoAAAANSUhEUgAAAPoAAAD6CAYAAACI7Fo9AAAACXBIWXMAAA7EAAAOxAGVKw4bAAAH8UlEQVR4nO3dz4tkVxkG4KoQRslA/oFgb0YYstFkEMZFw4CYwU1AXThbIQVqD4zIgBoXHdKLRAMTycB0FEpwOy5EyEY74qoFV/nhJkZcFbhzFUjQIJRLxfOJZ+rerls97/MsD111T93m5cDLuffM17P1DHi4PTL1BICzJ+gQQNAhgKBDAEGHAIIOAQQdAgg6BBB0CCDoEEDQIYCgQwBBhwCCDgEEHQIIOgQQdAgg6BBA0CGAoEMAQYcAgg4BBB0CCDoEEHQIIOgQQNAhgKBDAEGHAI9OPQH+v+P9+bk78vbgdD2feg78mxUdAgg6BBB0CCDoEEAZN6Hekm2xWDRjF/b2Nr7ux6tVM7Yqxj69v7/x9x3P+n6b0m47rOgQQNAhgKBDAEGHAMq4Lekt3q5fv775RToLugvVR4uxqmS7UBR01fdVBWJV+FWlnYJufFZ0CCDoEEDQIYCgQ4D5enbunoDceVXxdnB01P5hVZ4VhVVVilXK3XK9O+g6r1uVcWPP+fjwsBlT0A1jRYcAgg4BBB0CCDoEsDNuoN4db385PW3GysdAi3Kq2nlWlV1DrlEpH13t+uT4yoJTQdfNig4BBB0CCDoEEHQIoIw7A9UuuEHl2dg6d7KdnJw0Y73zWy6XzVjvfake1a3mQj8rOgQQdAgg6BBA0CGAx1QfQO8uuN7SqSqsGHb/7JarWdEhgKBDAEGHAIIOAeyMG6g6qKB651nl6y/c2/i6jxWPmn5UFFZT/V2vn794sxlTXI7Pig4BBB0CCDoEEHQIoIwbqHqvWlXQDSmTdr14G7ugq+6VR1eHsaJDAEGHAIIOAQQdAijjzkBVJvXughtS2lUl4NiF2tjzq+5LtVuOYazoEEDQIYCgQwBBhwDeGfcAet8Zd7M9l2EyH765+aOwF5/ZnVLsXue5Ft4ZV7OiQwBBhwCCDgEEHQLYGTfQP594uhh9uxlZr6cpPefzzbupXZpzdZ8f/Wt7n6lZ0SGAoEMAQYcAgg4BlHEPoCqEqneZze63JdHHf/59M/b8T3/ZjB0cHDRjx8fHzdidO3easdu3b7dzKVS75apdcNX39V6393e8/I2v/s95/qf6nXFdH2VmRYcIgg4BBB0CCDoEUMYNtFe8a63Xl596ohm7dOlSM3blkeeasd7ibWzVdav5Vb+j+r29htxnrOgQQdAhgKBDAEGHAMq4M/DajXYH3Scuty89+8f7m79crirA9j7z62bs1Y2vUJdnqz9+aePvu3r1ajNW3Zfq/jGMFR0CCDoEEHQIIOgQwAEOA929caXrBlaPWT753I9Gn89/W7//xsafnV9+dsSZ1N772feasZPO509v3X/LYQ2drOgQQNAhgKBDAEGHAHbGDVQVQr0FXfXutseqxzGrsdWq5xKzu4eHXX9X6S7yOuf3UTG26vwdirdhrOgQQNAhgKBDAEGHAHbGbUlV0FW75ap3o5UFXXWNonj77Ld+3PXZyruvf6cZu3V01IxVJVulKt6qXXCKt/FZ0SGAoEMAQYcAgg4B7IzbknIH3axvB91isdj4uteuXdv4s+++3o71Fm/L5bLr7xRv22FFhwCCDgEEHQIIOgSwM+4cGPJeut73r439fUq23WJFhwCCDgEEHQIIOgRQxj1Eeku7IZRs55MVHQIIOgQQdAgg6BBAGbdj5rP5xv+Qp377izGnUnrni1/b+LPr2VqRNxErOgQQdAgg6BBA0CGAMm5CQ4q36qCH3pNJq9Kut2Qbct2Kgm47rOgQQNAhgKBDAEGHAA5w2DG9ZVc11vvZd05eHXUuY3+W8VnRIYCgQwBBhwCCDgHsjNuS3l1w2yixjv7eHsJw+Mn2sIYhhvwOu+XGZ0WHAIIOAQQdAgg6BLAzbscMKd56C7DT09NRv69iF9xusaJDAEGHAIIOAQQdAijjzsAu7YKr7O/vN2PtXrnx9f7e6v7ZLTeMFR0CCDoEEHQIIOgQQBk3obF3wW2D3XLnkxUdAgg6BBB0CCDoEEAZtyW95dnDXFi5B9OxokMAQYcAgg4BBB0CKOPOwEs3v9+M/eDeD0e9xjYKq7Gv0ft91f2b3Rt1KnGs6BBA0CGAoEMAQYcAyrgzcPFvv2nGyoLud0VB917fNYbsMustxUbfyfZkO/TSF9r7Ut2/2ezlvmtQsqJDAEGHAIIOAQQdAijjtuQrV9ozHZ6/9UYzNr/8bNf3ncedcetftb/3T8XJrifbOE0ijBUdAgg6BBB0CCDoEGC+nnUd/MlAd2+0bdxisWj+7uIzN/u+8LufHzyn0bzyh64/+/DN9lnT5XLZjN26/5aTU0dmRYcAgg4BBB0CCDoEUMZNqCroKt++//ZZT2V0r914uuvvFG/bYUWHAIIOAQQdAgg6BFDGnQPz2XzUf9J6tm4KsG1cg+lY0SGAoEMAQYcAgg4BBB0CCDoEEHQIIOgQQNAhgKBDAEGHAIIOAQQdAgg6BHCa6o4Z+3HRqVS/w6Or07GiQwBBhwCCDgEEHQIo4ybUW7zt7e01Y6vVqhn7yeMvNmPLD9rTSiufm32qGVs83p72+s0PXth4fgq66VjRIYCgQwBBhwCCDgGUcTumKrbOo96Cju2wokMAQYcAgg4BBB0COE11QlM9krqN01SHzIXxWdEhgKBDAEGHAIIOAZRxEMCKDgEEHQIIOgQQdAgg6BBA0CGAoEMAQYcAgg4BBB0CCDoEEHQIIOgQQNAhwL8A7VYi/CpYn4cAAAAASUVORK5CYII=;" vertex="1" parent="1">
          <mxGeometry x="610" y="190" width="40" height="40" as="geometry" />
        </mxCell>
        <mxCell id="KkG0gUKBAMz0gUutYyn7-152" value="&lt;b&gt;Reply 1: Slippage&lt;/b&gt;" style="text;html=1;align=center;verticalAlign=middle;whiteSpace=wrap;rounded=0;" vertex="1" parent="1">
          <mxGeometry x="510" y="194" width="107" height="10" as="geometry" />
        </mxCell>
        <mxCell id="KkG0gUKBAMz0gUutYyn7-156" style="edgeStyle=orthogonalEdgeStyle;rounded=1;orthogonalLoop=1;jettySize=auto;html=1;exitX=0.5;exitY=1;exitDx=0;exitDy=0;entryX=0.65;entryY=-0.111;entryDx=0;entryDy=0;entryPerimeter=0;curved=0;endArrow=classicThin;endFill=1;" edge="1" parent="1" source="KkG0gUKBAMz0gUutYyn7-72" target="KkG0gUKBAMz0gUutYyn7-132">
          <mxGeometry relative="1" as="geometry">
            <Array as="points">
              <mxPoint x="385" y="190" />
              <mxPoint x="293" y="190" />
            </Array>
          </mxGeometry>
        </mxCell>
        <mxCell id="KkG0gUKBAMz0gUutYyn7-158" style="edgeStyle=orthogonalEdgeStyle;rounded=1;orthogonalLoop=1;jettySize=auto;html=1;exitX=0.5;exitY=1;exitDx=0;exitDy=0;entryX=0.347;entryY=-0.065;entryDx=0;entryDy=0;entryPerimeter=0;curved=0;endArrow=classicThin;endFill=1;" edge="1" parent="1" source="KkG0gUKBAMz0gUutYyn7-72">
          <mxGeometry relative="1" as="geometry">
            <mxPoint x="476.75" y="209.82999999999993" as="targetPoint" />
            <Array as="points">
              <mxPoint x="385" y="190" />
              <mxPoint x="477" y="190" />
            </Array>
          </mxGeometry>
        </mxCell>
        <mxCell id="KkG0gUKBAMz0gUutYyn7-159" value="" style="rounded=1;whiteSpace=wrap;html=1;dashed=1;strokeWidth=2;fillColor=none;" vertex="1" parent="1">
          <mxGeometry x="390" y="211" width="250" height="18" as="geometry" />
        </mxCell>
        <mxCell id="KkG0gUKBAMz0gUutYyn7-160" value="&lt;blockquote style=&quot;margin: 0 0 0 40px; border: none; padding: 0px;&quot;&gt;&lt;div style=&quot;text-align: justify; padding-left: 5px; padding-right: 5px;&quot;&gt;&lt;div&gt;&lt;strong style=&quot;background-color: initial;&quot; data-end=&quot;80&quot; data-start=&quot;74&quot;&gt;&lt;span style=&quot;white-space: pre;&quot;&gt;&#x9;&lt;/span&gt;A:&lt;/strong&gt;&lt;span style=&quot;background-color: initial;&quot;&gt;&amp;nbsp;Yes, [Explanations]&lt;/span&gt;&lt;/div&gt;&lt;/div&gt;&lt;/blockquote&gt;" style="rounded=1;whiteSpace=wrap;html=1;strokeColor=none;fillColor=#CCCCFF;align=left;" vertex="1" parent="1">
          <mxGeometry x="130" y="400" width="250" height="20" as="geometry" />
        </mxCell>
        <mxCell id="KkG0gUKBAMz0gUutYyn7-161" value="" style="shape=image;verticalLabelPosition=bottom;labelBackgroundColor=default;verticalAlign=top;aspect=fixed;imageAspect=0;image=data:image/png,iVBORw0KGgoAAAANSUhEUgAAAPoAAAD6CAYAAACI7Fo9AAAACXBIWXMAAA7EAAAOxAGVKw4bAAAH8UlEQVR4nO3dz4tkVxkG4KoQRslA/oFgb0YYstFkEMZFw4CYwU1AXThbIQVqD4zIgBoXHdKLRAMTycB0FEpwOy5EyEY74qoFV/nhJkZcFbhzFUjQIJRLxfOJZ+rerls97/MsD111T93m5cDLuffM17P1DHi4PTL1BICzJ+gQQNAhgKBDAEGHAIIOAQQdAgg6BBB0CCDoEEDQIYCgQwBBhwCCDgEEHQIIOgQQdAgg6BBA0CGAoEMAQYcAgg4BBB0CCDoEEHQIIOgQQNAhgKBDAEGHAI9OPQH+v+P9+bk78vbgdD2feg78mxUdAgg6BBB0CCDoEEAZN6Hekm2xWDRjF/b2Nr7ux6tVM7Yqxj69v7/x9x3P+n6b0m47rOgQQNAhgKBDAEGHAMq4Lekt3q5fv775RToLugvVR4uxqmS7UBR01fdVBWJV+FWlnYJufFZ0CCDoEEDQIYCgQ4D5enbunoDceVXxdnB01P5hVZ4VhVVVilXK3XK9O+g6r1uVcWPP+fjwsBlT0A1jRYcAgg4BBB0CCDoEsDNuoN4db385PW3GysdAi3Kq2nlWlV1DrlEpH13t+uT4yoJTQdfNig4BBB0CCDoEEHQIoIw7A9UuuEHl2dg6d7KdnJw0Y73zWy6XzVjvfake1a3mQj8rOgQQdAgg6BBA0CGAx1QfQO8uuN7SqSqsGHb/7JarWdEhgKBDAEGHAIIOAeyMG6g6qKB651nl6y/c2/i6jxWPmn5UFFZT/V2vn794sxlTXI7Pig4BBB0CCDoEEHQIoIwbqHqvWlXQDSmTdr14G7ugq+6VR1eHsaJDAEGHAIIOAQQdAijjzkBVJvXughtS2lUl4NiF2tjzq+5LtVuOYazoEEDQIYCgQwBBhwDeGfcAet8Zd7M9l2EyH765+aOwF5/ZnVLsXue5Ft4ZV7OiQwBBhwCCDgEEHQLYGTfQP594uhh9uxlZr6cpPefzzbupXZpzdZ8f/Wt7n6lZ0SGAoEMAQYcAgg4BlHEPoCqEqneZze63JdHHf/59M/b8T3/ZjB0cHDRjx8fHzdidO3easdu3b7dzKVS75apdcNX39V6393e8/I2v/s95/qf6nXFdH2VmRYcIgg4BBB0CCDoEUMYNtFe8a63Xl596ohm7dOlSM3blkeeasd7ibWzVdav5Vb+j+r29htxnrOgQQdAhgKBDAEGHAMq4M/DajXYH3Scuty89+8f7m79crirA9j7z62bs1Y2vUJdnqz9+aePvu3r1ajNW3Zfq/jGMFR0CCDoEEHQIIOgQwAEOA929caXrBlaPWT753I9Gn89/W7//xsafnV9+dsSZ1N772feasZPO509v3X/LYQ2drOgQQNAhgKBDAEGHAHbGDVQVQr0FXfXutseqxzGrsdWq5xKzu4eHXX9X6S7yOuf3UTG26vwdirdhrOgQQNAhgKBDAEGHAHbGbUlV0FW75ap3o5UFXXWNonj77Ld+3PXZyruvf6cZu3V01IxVJVulKt6qXXCKt/FZ0SGAoEMAQYcAgg4B7IzbknIH3axvB91isdj4uteuXdv4s+++3o71Fm/L5bLr7xRv22FFhwCCDgEEHQIIOgSwM+4cGPJeut73r439fUq23WJFhwCCDgEEHQIIOgRQxj1Eeku7IZRs55MVHQIIOgQQdAgg6BBAGbdj5rP5xv+Qp377izGnUnrni1/b+LPr2VqRNxErOgQQdAgg6BBA0CGAMm5CQ4q36qCH3pNJq9Kut2Qbct2Kgm47rOgQQNAhgKBDAEGHAA5w2DG9ZVc11vvZd05eHXUuY3+W8VnRIYCgQwBBhwCCDgHsjNuS3l1w2yixjv7eHsJw+Mn2sIYhhvwOu+XGZ0WHAIIOAQQdAgg6BLAzbscMKd56C7DT09NRv69iF9xusaJDAEGHAIIOAQQdAijjzsAu7YKr7O/vN2PtXrnx9f7e6v7ZLTeMFR0CCDoEEHQIIOgQQBk3obF3wW2D3XLnkxUdAgg6BBB0CCDoEEAZtyW95dnDXFi5B9OxokMAQYcAgg4BBB0CKOPOwEs3v9+M/eDeD0e9xjYKq7Gv0ft91f2b3Rt1KnGs6BBA0CGAoEMAQYcAyrgzcPFvv2nGyoLud0VB917fNYbsMustxUbfyfZkO/TSF9r7Ut2/2ezlvmtQsqJDAEGHAIIOAQQdAijjtuQrV9ozHZ6/9UYzNr/8bNf3ncedcetftb/3T8XJrifbOE0ijBUdAgg6BBB0CCDoEGC+nnUd/MlAd2+0bdxisWj+7uIzN/u+8LufHzyn0bzyh64/+/DN9lnT5XLZjN26/5aTU0dmRYcAgg4BBB0CCDoEUMZNqCroKt++//ZZT2V0r914uuvvFG/bYUWHAIIOAQQdAgg6BFDGnQPz2XzUf9J6tm4KsG1cg+lY0SGAoEMAQYcAgg4BBB0CCDoEEHQIIOgQQNAhgKBDAEGHAIIOAQQdAgg6BHCa6o4Z+3HRqVS/w6Or07GiQwBBhwCCDgEEHQIo4ybUW7zt7e01Y6vVqhn7yeMvNmPLD9rTSiufm32qGVs83p72+s0PXth4fgq66VjRIYCgQwBBhwCCDgGUcTumKrbOo96Cju2wokMAQYcAgg4BBB0COE11QlM9krqN01SHzIXxWdEhgKBDAEGHAIIOAZRxEMCKDgEEHQIIOgQQdAgg6BBA0CGAoEMAQYcAgg4BBB0CCDoEEHQIIOgQQNAhwL8A7VYi/CpYn4cAAAAASUVORK5CYII=;" vertex="1" parent="1">
          <mxGeometry x="120" y="380" width="40" height="40" as="geometry" />
        </mxCell>
        <mxCell id="KkG0gUKBAMz0gUutYyn7-162" value="&lt;b&gt;Reply 2:&amp;nbsp;&lt;/b&gt;&lt;b&gt;Position Size&lt;/b&gt;" style="text;html=1;align=center;verticalAlign=middle;whiteSpace=wrap;rounded=0;" vertex="1" parent="1">
          <mxGeometry x="153" y="384" width="127" height="10" as="geometry" />
        </mxCell>
        <mxCell id="KkG0gUKBAMz0gUutYyn7-163" value="&lt;div style=&quot;text-align: justify; padding-left: 5px; padding-right: 5px;&quot;&gt;&lt;div&gt;&lt;strong style=&quot;background-color: initial;&quot; data-end=&quot;80&quot; data-start=&quot;74&quot;&gt;Q:&lt;/strong&gt;&lt;span style=&quot;background-color: initial;&quot;&gt; Given the current network situation,&amp;nbsp;&lt;/span&gt;&lt;span style=&quot;background-color: initial;&quot;&gt;should we proceed with opening the position in sync with the tracked wallet?&lt;/span&gt;&lt;/div&gt;&lt;div&gt;&lt;br&gt;&lt;/div&gt;&lt;div&gt;- Distribution of the one-hour gas price:&amp;nbsp;&lt;span style=&quot;background-color: initial; color: rgb(0, 0, 255);&quot;&gt;{s&lt;/span&gt;&lt;i style=&quot;background-color: initial; color: rgb(0, 0, 255);&quot;&gt;ummary statistics of distribution&lt;/i&gt;&lt;span style=&quot;background-color: initial; color: rgb(0, 0, 255);&quot;&gt;}&lt;/span&gt;&lt;span style=&quot;background-color: initial;&quot;&gt;&amp;nbsp;&lt;/span&gt;&lt;/div&gt;&lt;div&gt;- Current gas price:&amp;nbsp;&lt;span style=&quot;background-color: initial; color: rgb(0, 0, 255);&quot;&gt;{&lt;/span&gt;&lt;i style=&quot;background-color: initial; color: rgb(0, 0, 255);&quot;&gt;current gas&lt;/i&gt;&lt;span style=&quot;background-color: initial; color: rgb(0, 0, 255);&quot;&gt;}&lt;/span&gt;&lt;span style=&quot;background-color: initial;&quot;&gt;&amp;nbsp;&lt;/span&gt;&lt;/div&gt;&lt;/div&gt;" style="rounded=1;whiteSpace=wrap;html=1;strokeColor=none;fillColor=#CCCCFF;align=left;" vertex="1" parent="1">
          <mxGeometry x="130" y="452" width="510" height="88" as="geometry" />
        </mxCell>
        <mxCell id="KkG0gUKBAMz0gUutYyn7-164" value="" style="shape=image;verticalLabelPosition=bottom;labelBackgroundColor=default;verticalAlign=top;aspect=fixed;imageAspect=0;image=https://openclipart.org/image/800px/247320;" vertex="1" parent="1">
          <mxGeometry x="127" y="437" width="26" height="26" as="geometry" />
        </mxCell>
        <mxCell id="KkG0gUKBAMz0gUutYyn7-165" value="&lt;b&gt;Prompt 3: Gas Fees&lt;/b&gt;" style="text;html=1;align=center;verticalAlign=middle;whiteSpace=wrap;rounded=0;" vertex="1" parent="1">
          <mxGeometry x="153" y="437" width="117" height="10" as="geometry" />
        </mxCell>
        <mxCell id="KkG0gUKBAMz0gUutYyn7-166" value="" style="endArrow=classicThin;html=1;rounded=0;endFill=1;" edge="1" parent="1">
          <mxGeometry width="50" height="50" relative="1" as="geometry">
            <mxPoint x="293" y="420" as="sourcePoint" />
            <mxPoint x="293" y="453" as="targetPoint" />
          </mxGeometry>
        </mxCell>
        <mxCell id="KkG0gUKBAMz0gUutYyn7-167" value="" style="rounded=1;whiteSpace=wrap;html=1;dashed=1;strokeWidth=2;fillColor=none;" vertex="1" parent="1">
          <mxGeometry x="130" y="401" width="250" height="18" as="geometry" />
        </mxCell>
        <mxCell id="KkG0gUKBAMz0gUutYyn7-168" value="&lt;blockquote style=&quot;margin: 0 0 0 40px; border: none; padding: 0px;&quot;&gt;&lt;div style=&quot;text-align: justify; padding-left: 5px; padding-right: 5px;&quot;&gt;&lt;div&gt;&lt;strong style=&quot;background-color: initial;&quot; data-end=&quot;80&quot; data-start=&quot;74&quot;&gt;&lt;span style=&quot;white-space: pre;&quot;&gt;&#x9;&lt;/span&gt;A:&lt;/strong&gt;&lt;span style=&quot;background-color: initial;&quot;&gt;&amp;nbsp;No&lt;/span&gt;&lt;span style=&quot;color: rgba(0, 0, 0, 0); font-family: monospace; font-size: 0px; text-align: start; text-wrap: nowrap; background-color: initial;&quot;&gt;%3CmxGraphModel%3E%3Croot%3E%3CmxCell%20id%3D%220%22%2F%3E%3CmxCell%20id%3D%221%22%20parent%3D%220%22%2F%3E%3CmxCell%20id%3D%222%22%20value%3D%22%22%20style%3D%22rounded%3D1%3BwhiteSpace%3Dwrap%3Bhtml%3D1%3Bdashed%3D1%3BstrokeWidth%3D2%3BfillColor%3Dnone%3B%22%20vertex%3D%221%22%20parent%3D%221%22%3E%3CmxGeometry%20x%3D%22390%22%20y%3D%22211%22%20width%3D%22250%22%20height%3D%2218%22%20as%3D%22geometry%22%2F%3E%3C%2FmxCell%3E%3C%2Froot%3E%3C%2FmxGraphModel%3E&lt;/span&gt;&lt;span style=&quot;background-color: initial;&quot;&gt;, [Explanations]&lt;/span&gt;&lt;/div&gt;&lt;/div&gt;&lt;/blockquote&gt;" style="rounded=1;whiteSpace=wrap;html=1;strokeColor=none;fillColor=#CCCCFF;align=left;" vertex="1" parent="1">
          <mxGeometry x="390" y="400" width="250" height="20" as="geometry" />
        </mxCell>
        <mxCell id="KkG0gUKBAMz0gUutYyn7-169" value="" style="shape=image;verticalLabelPosition=bottom;labelBackgroundColor=default;verticalAlign=top;aspect=fixed;imageAspect=0;image=data:image/png,iVBORw0KGgoAAAANSUhEUgAAAPoAAAD6CAYAAACI7Fo9AAAACXBIWXMAAA7EAAAOxAGVKw4bAAAH8UlEQVR4nO3dz4tkVxkG4KoQRslA/oFgb0YYstFkEMZFw4CYwU1AXThbIQVqD4zIgBoXHdKLRAMTycB0FEpwOy5EyEY74qoFV/nhJkZcFbhzFUjQIJRLxfOJZ+rerls97/MsD111T93m5cDLuffM17P1DHi4PTL1BICzJ+gQQNAhgKBDAEGHAIIOAQQdAgg6BBB0CCDoEEDQIYCgQwBBhwCCDgEEHQIIOgQQdAgg6BBA0CGAoEMAQYcAgg4BBB0CCDoEEHQIIOgQQNAhgKBDAEGHAI9OPQH+v+P9+bk78vbgdD2feg78mxUdAgg6BBB0CCDoEEAZN6Hekm2xWDRjF/b2Nr7ux6tVM7Yqxj69v7/x9x3P+n6b0m47rOgQQNAhgKBDAEGHAMq4Lekt3q5fv775RToLugvVR4uxqmS7UBR01fdVBWJV+FWlnYJufFZ0CCDoEEDQIYCgQ4D5enbunoDceVXxdnB01P5hVZ4VhVVVilXK3XK9O+g6r1uVcWPP+fjwsBlT0A1jRYcAgg4BBB0CCDoEsDNuoN4db385PW3GysdAi3Kq2nlWlV1DrlEpH13t+uT4yoJTQdfNig4BBB0CCDoEEHQIoIw7A9UuuEHl2dg6d7KdnJw0Y73zWy6XzVjvfake1a3mQj8rOgQQdAgg6BBA0CGAx1QfQO8uuN7SqSqsGHb/7JarWdEhgKBDAEGHAIIOAeyMG6g6qKB651nl6y/c2/i6jxWPmn5UFFZT/V2vn794sxlTXI7Pig4BBB0CCDoEEHQIoIwbqHqvWlXQDSmTdr14G7ugq+6VR1eHsaJDAEGHAIIOAQQdAijjzkBVJvXughtS2lUl4NiF2tjzq+5LtVuOYazoEEDQIYCgQwBBhwDeGfcAet8Zd7M9l2EyH765+aOwF5/ZnVLsXue5Ft4ZV7OiQwBBhwCCDgEEHQLYGTfQP594uhh9uxlZr6cpPefzzbupXZpzdZ8f/Wt7n6lZ0SGAoEMAQYcAgg4BlHEPoCqEqneZze63JdHHf/59M/b8T3/ZjB0cHDRjx8fHzdidO3easdu3b7dzKVS75apdcNX39V6393e8/I2v/s95/qf6nXFdH2VmRYcIgg4BBB0CCDoEUMYNtFe8a63Xl596ohm7dOlSM3blkeeasd7ibWzVdav5Vb+j+r29htxnrOgQQdAhgKBDAEGHAMq4M/DajXYH3Scuty89+8f7m79crirA9j7z62bs1Y2vUJdnqz9+aePvu3r1ajNW3Zfq/jGMFR0CCDoEEHQIIOgQwAEOA929caXrBlaPWT753I9Gn89/W7//xsafnV9+dsSZ1N772feasZPO509v3X/LYQ2drOgQQNAhgKBDAEGHAHbGDVQVQr0FXfXutseqxzGrsdWq5xKzu4eHXX9X6S7yOuf3UTG26vwdirdhrOgQQNAhgKBDAEGHAHbGbUlV0FW75ap3o5UFXXWNonj77Ld+3PXZyruvf6cZu3V01IxVJVulKt6qXXCKt/FZ0SGAoEMAQYcAgg4B7IzbknIH3axvB91isdj4uteuXdv4s+++3o71Fm/L5bLr7xRv22FFhwCCDgEEHQIIOgSwM+4cGPJeut73r439fUq23WJFhwCCDgEEHQIIOgRQxj1Eeku7IZRs55MVHQIIOgQQdAgg6BBAGbdj5rP5xv+Qp377izGnUnrni1/b+LPr2VqRNxErOgQQdAgg6BBA0CGAMm5CQ4q36qCH3pNJq9Kut2Qbct2Kgm47rOgQQNAhgKBDAEGHAA5w2DG9ZVc11vvZd05eHXUuY3+W8VnRIYCgQwBBhwCCDgHsjNuS3l1w2yixjv7eHsJw+Mn2sIYhhvwOu+XGZ0WHAIIOAQQdAgg6BLAzbscMKd56C7DT09NRv69iF9xusaJDAEGHAIIOAQQdAijjzsAu7YKr7O/vN2PtXrnx9f7e6v7ZLTeMFR0CCDoEEHQIIOgQQBk3obF3wW2D3XLnkxUdAgg6BBB0CCDoEEAZtyW95dnDXFi5B9OxokMAQYcAgg4BBB0CKOPOwEs3v9+M/eDeD0e9xjYKq7Gv0ft91f2b3Rt1KnGs6BBA0CGAoEMAQYcAyrgzcPFvv2nGyoLud0VB917fNYbsMustxUbfyfZkO/TSF9r7Ut2/2ezlvmtQsqJDAEGHAIIOAQQdAijjtuQrV9ozHZ6/9UYzNr/8bNf3ncedcetftb/3T8XJrifbOE0ijBUdAgg6BBB0CCDoEGC+nnUd/MlAd2+0bdxisWj+7uIzN/u+8LufHzyn0bzyh64/+/DN9lnT5XLZjN26/5aTU0dmRYcAgg4BBB0CCDoEUMZNqCroKt++//ZZT2V0r914uuvvFG/bYUWHAIIOAQQdAgg6BFDGnQPz2XzUf9J6tm4KsG1cg+lY0SGAoEMAQYcAgg4BBB0CCDoEEHQIIOgQQNAhgKBDAEGHAIIOAQQdAgg6BHCa6o4Z+3HRqVS/w6Or07GiQwBBhwCCDgEEHQIo4ybUW7zt7e01Y6vVqhn7yeMvNmPLD9rTSiufm32qGVs83p72+s0PXth4fgq66VjRIYCgQwBBhwCCDgGUcTumKrbOo96Cju2wokMAQYcAgg4BBB0COE11QlM9krqN01SHzIXxWdEhgKBDAEGHAIIOAZRxEMCKDgEEHQIIOgQQdAgg6BBA0CGAoEMAQYcAgg4BBB0CCDoEEHQIIOgQQNAhwL8A7VYi/CpYn4cAAAAASUVORK5CYII=;" vertex="1" parent="1">
          <mxGeometry x="610" y="380" width="40" height="40" as="geometry" />
        </mxCell>
        <mxCell id="KkG0gUKBAMz0gUutYyn7-170" value="&lt;b&gt;Reply 2:&amp;nbsp;&lt;/b&gt;&lt;b&gt;Position Size&lt;/b&gt;" style="text;html=1;align=center;verticalAlign=middle;whiteSpace=wrap;rounded=0;" vertex="1" parent="1">
          <mxGeometry x="487" y="384" width="130" height="10" as="geometry" />
        </mxCell>
        <mxCell id="KkG0gUKBAMz0gUutYyn7-171" style="edgeStyle=orthogonalEdgeStyle;rounded=1;orthogonalLoop=1;jettySize=auto;html=1;exitX=0.5;exitY=1;exitDx=0;exitDy=0;entryX=0.65;entryY=-0.111;entryDx=0;entryDy=0;entryPerimeter=0;curved=0;endArrow=classicThin;endFill=1;" edge="1" parent="1" target="KkG0gUKBAMz0gUutYyn7-167">
          <mxGeometry relative="1" as="geometry">
            <mxPoint x="385" y="370" as="sourcePoint" />
            <Array as="points">
              <mxPoint x="385" y="380" />
              <mxPoint x="293" y="380" />
            </Array>
          </mxGeometry>
        </mxCell>
        <mxCell id="KkG0gUKBAMz0gUutYyn7-172" style="edgeStyle=orthogonalEdgeStyle;rounded=1;orthogonalLoop=1;jettySize=auto;html=1;exitX=0.5;exitY=1;exitDx=0;exitDy=0;entryX=0.347;entryY=-0.065;entryDx=0;entryDy=0;entryPerimeter=0;curved=0;endArrow=classicThin;endFill=1;" edge="1" parent="1">
          <mxGeometry relative="1" as="geometry">
            <mxPoint x="385" y="370" as="sourcePoint" />
            <mxPoint x="476.75" y="399.8299999999999" as="targetPoint" />
            <Array as="points">
              <mxPoint x="385" y="380" />
              <mxPoint x="477" y="380" />
            </Array>
          </mxGeometry>
        </mxCell>
        <mxCell id="KkG0gUKBAMz0gUutYyn7-173" value="" style="rounded=1;whiteSpace=wrap;html=1;dashed=1;strokeWidth=2;fillColor=none;" vertex="1" parent="1">
          <mxGeometry x="390" y="401" width="250" height="18" as="geometry" />
        </mxCell>
        <mxCell id="KkG0gUKBAMz0gUutYyn7-174" value="&lt;blockquote style=&quot;margin: 0 0 0 40px; border: none; padding: 0px;&quot;&gt;&lt;div style=&quot;text-align: justify; padding-left: 5px; padding-right: 5px;&quot;&gt;&lt;div&gt;&lt;strong style=&quot;background-color: initial;&quot; data-end=&quot;80&quot; data-start=&quot;74&quot;&gt;&lt;span style=&quot;white-space: pre;&quot;&gt;&#x9;&lt;/span&gt;A:&lt;/strong&gt;&lt;span style=&quot;background-color: initial;&quot;&gt;&amp;nbsp;Yes, [Explanations]&lt;/span&gt;&lt;/div&gt;&lt;/div&gt;&lt;/blockquote&gt;" style="rounded=1;whiteSpace=wrap;html=1;strokeColor=none;fillColor=#CCCCFF;align=left;" vertex="1" parent="1">
          <mxGeometry x="130" y="570" width="250" height="20" as="geometry" />
        </mxCell>
        <mxCell id="KkG0gUKBAMz0gUutYyn7-175" value="" style="shape=image;verticalLabelPosition=bottom;labelBackgroundColor=default;verticalAlign=top;aspect=fixed;imageAspect=0;image=data:image/png,iVBORw0KGgoAAAANSUhEUgAAAPoAAAD6CAYAAACI7Fo9AAAACXBIWXMAAA7EAAAOxAGVKw4bAAAH8UlEQVR4nO3dz4tkVxkG4KoQRslA/oFgb0YYstFkEMZFw4CYwU1AXThbIQVqD4zIgBoXHdKLRAMTycB0FEpwOy5EyEY74qoFV/nhJkZcFbhzFUjQIJRLxfOJZ+rerls97/MsD111T93m5cDLuffM17P1DHi4PTL1BICzJ+gQQNAhgKBDAEGHAIIOAQQdAgg6BBB0CCDoEEDQIYCgQwBBhwCCDgEEHQIIOgQQdAgg6BBA0CGAoEMAQYcAgg4BBB0CCDoEEHQIIOgQQNAhgKBDAEGHAI9OPQH+v+P9+bk78vbgdD2feg78mxUdAgg6BBB0CCDoEEAZN6Hekm2xWDRjF/b2Nr7ux6tVM7Yqxj69v7/x9x3P+n6b0m47rOgQQNAhgKBDAEGHAMq4Lekt3q5fv775RToLugvVR4uxqmS7UBR01fdVBWJV+FWlnYJufFZ0CCDoEEDQIYCgQ4D5enbunoDceVXxdnB01P5hVZ4VhVVVilXK3XK9O+g6r1uVcWPP+fjwsBlT0A1jRYcAgg4BBB0CCDoEsDNuoN4db385PW3GysdAi3Kq2nlWlV1DrlEpH13t+uT4yoJTQdfNig4BBB0CCDoEEHQIoIw7A9UuuEHl2dg6d7KdnJw0Y73zWy6XzVjvfake1a3mQj8rOgQQdAgg6BBA0CGAx1QfQO8uuN7SqSqsGHb/7JarWdEhgKBDAEGHAIIOAeyMG6g6qKB651nl6y/c2/i6jxWPmn5UFFZT/V2vn794sxlTXI7Pig4BBB0CCDoEEHQIoIwbqHqvWlXQDSmTdr14G7ugq+6VR1eHsaJDAEGHAIIOAQQdAijjzkBVJvXughtS2lUl4NiF2tjzq+5LtVuOYazoEEDQIYCgQwBBhwDeGfcAet8Zd7M9l2EyH765+aOwF5/ZnVLsXue5Ft4ZV7OiQwBBhwCCDgEEHQLYGTfQP594uhh9uxlZr6cpPefzzbupXZpzdZ8f/Wt7n6lZ0SGAoEMAQYcAgg4BlHEPoCqEqneZze63JdHHf/59M/b8T3/ZjB0cHDRjx8fHzdidO3easdu3b7dzKVS75apdcNX39V6393e8/I2v/s95/qf6nXFdH2VmRYcIgg4BBB0CCDoEUMYNtFe8a63Xl596ohm7dOlSM3blkeeasd7ibWzVdav5Vb+j+r29htxnrOgQQdAhgKBDAEGHAMq4M/DajXYH3Scuty89+8f7m79crirA9j7z62bs1Y2vUJdnqz9+aePvu3r1ajNW3Zfq/jGMFR0CCDoEEHQIIOgQwAEOA929caXrBlaPWT753I9Gn89/W7//xsafnV9+dsSZ1N772feasZPO509v3X/LYQ2drOgQQNAhgKBDAEGHAHbGDVQVQr0FXfXutseqxzGrsdWq5xKzu4eHXX9X6S7yOuf3UTG26vwdirdhrOgQQNAhgKBDAEGHAHbGbUlV0FW75ap3o5UFXXWNonj77Ld+3PXZyruvf6cZu3V01IxVJVulKt6qXXCKt/FZ0SGAoEMAQYcAgg4B7IzbknIH3axvB91isdj4uteuXdv4s+++3o71Fm/L5bLr7xRv22FFhwCCDgEEHQIIOgSwM+4cGPJeut73r439fUq23WJFhwCCDgEEHQIIOgRQxj1Eeku7IZRs55MVHQIIOgQQdAgg6BBAGbdj5rP5xv+Qp377izGnUnrni1/b+LPr2VqRNxErOgQQdAgg6BBA0CGAMm5CQ4q36qCH3pNJq9Kut2Qbct2Kgm47rOgQQNAhgKBDAEGHAA5w2DG9ZVc11vvZd05eHXUuY3+W8VnRIYCgQwBBhwCCDgHsjNuS3l1w2yixjv7eHsJw+Mn2sIYhhvwOu+XGZ0WHAIIOAQQdAgg6BLAzbscMKd56C7DT09NRv69iF9xusaJDAEGHAIIOAQQdAijjzsAu7YKr7O/vN2PtXrnx9f7e6v7ZLTeMFR0CCDoEEHQIIOgQQBk3obF3wW2D3XLnkxUdAgg6BBB0CCDoEEAZtyW95dnDXFi5B9OxokMAQYcAgg4BBB0CKOPOwEs3v9+M/eDeD0e9xjYKq7Gv0ft91f2b3Rt1KnGs6BBA0CGAoEMAQYcAyrgzcPFvv2nGyoLud0VB917fNYbsMustxUbfyfZkO/TSF9r7Ut2/2ezlvmtQsqJDAEGHAIIOAQQdAijjtuQrV9ozHZ6/9UYzNr/8bNf3ncedcetftb/3T8XJrifbOE0ijBUdAgg6BBB0CCDoEGC+nnUd/MlAd2+0bdxisWj+7uIzN/u+8LufHzyn0bzyh64/+/DN9lnT5XLZjN26/5aTU0dmRYcAgg4BBB0CCDoEUMZNqCroKt++//ZZT2V0r914uuvvFG/bYUWHAIIOAQQdAgg6BFDGnQPz2XzUf9J6tm4KsG1cg+lY0SGAoEMAQYcAgg4BBB0CCDoEEHQIIOgQQNAhgKBDAEGHAIIOAQQdAgg6BHCa6o4Z+3HRqVS/w6Or07GiQwBBhwCCDgEEHQIo4ybUW7zt7e01Y6vVqhn7yeMvNmPLD9rTSiufm32qGVs83p72+s0PXth4fgq66VjRIYCgQwBBhwCCDgGUcTumKrbOo96Cju2wokMAQYcAgg4BBB0COE11QlM9krqN01SHzIXxWdEhgKBDAEGHAIIOAZRxEMCKDgEEHQIIOgQQdAgg6BBA0CGAoEMAQYcAgg4BBB0CCDoEEHQIIOgQQNAhwL8A7VYi/CpYn4cAAAAASUVORK5CYII=;" vertex="1" parent="1">
          <mxGeometry x="120" y="550" width="40" height="40" as="geometry" />
        </mxCell>
        <mxCell id="KkG0gUKBAMz0gUutYyn7-176" value="&lt;b&gt;Reply&amp;nbsp;&lt;/b&gt;&lt;b&gt;3: Gas Fees&lt;/b&gt;" style="text;html=1;align=center;verticalAlign=middle;whiteSpace=wrap;rounded=0;" vertex="1" parent="1">
          <mxGeometry x="150.5" y="554" width="112" height="10" as="geometry" />
        </mxCell>
        <mxCell id="KkG0gUKBAMz0gUutYyn7-177" value="&lt;div style=&quot;text-align: justify; padding-left: 5px; padding-right: 5px;&quot;&gt;&lt;div&gt;&lt;strong style=&quot;background-color: initial;&quot; data-end=&quot;80&quot; data-start=&quot;74&quot;&gt;&lt;br&gt;&lt;/strong&gt;&lt;/div&gt;&lt;div&gt;&lt;strong style=&quot;background-color: initial;&quot; data-end=&quot;80&quot; data-start=&quot;74&quot;&gt;Q:&lt;/strong&gt;&lt;span style=&quot;background-color: initial;&quot;&gt;&amp;nbsp;Given the following information, how much priority fee should we set?&lt;/span&gt;&lt;/div&gt;&lt;div&gt;&lt;span style=&quot;background-color: initial;&quot;&gt;&lt;br&gt;&lt;/span&gt;&lt;/div&gt;&lt;div&gt;&lt;span style=&quot;background-color: initial;&quot;&gt;- Historical one-hour transactions number of the meme:&amp;nbsp;&lt;/span&gt;&lt;span style=&quot;background-color: initial; color: rgb(0, 0, 255);&quot;&gt;{&lt;/span&gt;&lt;i style=&quot;background-color: initial; color: rgb(0, 0, 255);&quot;&gt;historical transactions&lt;/i&gt;&lt;span style=&quot;background-color: initial; color: rgb(0, 0, 255);&quot;&gt;}&lt;/span&gt;&lt;/div&gt;&lt;div&gt;&lt;span style=&quot;background-color: initial;&quot;&gt;- Distribution of the one-hour transactions number of past 10 tokens:&amp;nbsp;&lt;/span&gt;&lt;span style=&quot;background-color: initial; color: rgb(0, 0, 255);&quot;&gt;{s&lt;/span&gt;&lt;i style=&quot;background-color: initial; color: rgb(0, 0, 255);&quot;&gt;ummary statistics of distribution&lt;/i&gt;&lt;span style=&quot;background-color: initial; color: rgb(0, 0, 255);&quot;&gt;}&lt;/span&gt;&lt;span style=&quot;background-color: initial;&quot;&gt;&amp;nbsp;&lt;/span&gt;&lt;span style=&quot;background-color: initial; color: rgb(0, 0, 255);&quot;&gt;&lt;br&gt;&lt;/span&gt;&lt;/div&gt;&lt;div&gt;&lt;br&gt;&lt;/div&gt;&lt;/div&gt;" style="rounded=1;whiteSpace=wrap;html=1;strokeColor=none;fillColor=#CCCCFF;align=left;" vertex="1" parent="1">
          <mxGeometry x="130" y="622" width="510" height="88" as="geometry" />
        </mxCell>
        <mxCell id="KkG0gUKBAMz0gUutYyn7-178" value="" style="shape=image;verticalLabelPosition=bottom;labelBackgroundColor=default;verticalAlign=top;aspect=fixed;imageAspect=0;image=https://openclipart.org/image/800px/247320;" vertex="1" parent="1">
          <mxGeometry x="127" y="607" width="26" height="26" as="geometry" />
        </mxCell>
        <mxCell id="KkG0gUKBAMz0gUutYyn7-179" value="&lt;b&gt;Prompt 4: Priority Fees&lt;/b&gt;" style="text;html=1;align=center;verticalAlign=middle;whiteSpace=wrap;rounded=0;" vertex="1" parent="1">
          <mxGeometry x="153" y="607" width="137" height="10" as="geometry" />
        </mxCell>
        <mxCell id="KkG0gUKBAMz0gUutYyn7-180" value="" style="endArrow=classicThin;html=1;rounded=0;endFill=1;" edge="1" parent="1">
          <mxGeometry width="50" height="50" relative="1" as="geometry">
            <mxPoint x="293" y="590" as="sourcePoint" />
            <mxPoint x="293" y="623" as="targetPoint" />
          </mxGeometry>
        </mxCell>
        <mxCell id="KkG0gUKBAMz0gUutYyn7-181" value="" style="rounded=1;whiteSpace=wrap;html=1;dashed=1;strokeWidth=2;fillColor=none;" vertex="1" parent="1">
          <mxGeometry x="130" y="571" width="250" height="18" as="geometry" />
        </mxCell>
        <mxCell id="KkG0gUKBAMz0gUutYyn7-182" value="&lt;blockquote style=&quot;margin: 0 0 0 40px; border: none; padding: 0px;&quot;&gt;&lt;div style=&quot;text-align: justify; padding-left: 5px; padding-right: 5px;&quot;&gt;&lt;div&gt;&lt;strong style=&quot;background-color: initial;&quot; data-end=&quot;80&quot; data-start=&quot;74&quot;&gt;&lt;span style=&quot;white-space: pre;&quot;&gt;&#x9;&lt;/span&gt;A:&lt;/strong&gt;&lt;span style=&quot;background-color: initial;&quot;&gt;&amp;nbsp;No&lt;/span&gt;&lt;span style=&quot;color: rgba(0, 0, 0, 0); font-family: monospace; font-size: 0px; text-align: start; text-wrap: nowrap; background-color: initial;&quot;&gt;%3CmxGraphModel%3E%3Croot%3E%3CmxCell%20id%3D%220%22%2F%3E%3CmxCell%20id%3D%221%22%20parent%3D%220%22%2F%3E%3CmxCell%20id%3D%222%22%20value%3D%22%22%20style%3D%22rounded%3D1%3BwhiteSpace%3Dwrap%3Bhtml%3D1%3Bdashed%3D1%3BstrokeWidth%3D2%3BfillColor%3Dnone%3B%22%20vertex%3D%221%22%20parent%3D%221%22%3E%3CmxGeometry%20x%3D%22390%22%20y%3D%22211%22%20width%3D%22250%22%20height%3D%2218%22%20as%3D%22geometry%22%2F%3E%3C%2FmxCell%3E%3C%2Froot%3E%3C%2FmxGraphModel%3E&lt;/span&gt;&lt;span style=&quot;background-color: initial;&quot;&gt;, [Explanations]&lt;/span&gt;&lt;/div&gt;&lt;/div&gt;&lt;/blockquote&gt;" style="rounded=1;whiteSpace=wrap;html=1;strokeColor=none;fillColor=#CCCCFF;align=left;" vertex="1" parent="1">
          <mxGeometry x="390" y="570" width="250" height="20" as="geometry" />
        </mxCell>
        <mxCell id="KkG0gUKBAMz0gUutYyn7-183" value="" style="shape=image;verticalLabelPosition=bottom;labelBackgroundColor=default;verticalAlign=top;aspect=fixed;imageAspect=0;image=data:image/png,iVBORw0KGgoAAAANSUhEUgAAAPoAAAD6CAYAAACI7Fo9AAAACXBIWXMAAA7EAAAOxAGVKw4bAAAH8UlEQVR4nO3dz4tkVxkG4KoQRslA/oFgb0YYstFkEMZFw4CYwU1AXThbIQVqD4zIgBoXHdKLRAMTycB0FEpwOy5EyEY74qoFV/nhJkZcFbhzFUjQIJRLxfOJZ+rerls97/MsD111T93m5cDLuffM17P1DHi4PTL1BICzJ+gQQNAhgKBDAEGHAIIOAQQdAgg6BBB0CCDoEEDQIYCgQwBBhwCCDgEEHQIIOgQQdAgg6BBA0CGAoEMAQYcAgg4BBB0CCDoEEHQIIOgQQNAhgKBDAEGHAI9OPQH+v+P9+bk78vbgdD2feg78mxUdAgg6BBB0CCDoEEAZN6Hekm2xWDRjF/b2Nr7ux6tVM7Yqxj69v7/x9x3P+n6b0m47rOgQQNAhgKBDAEGHAMq4Lekt3q5fv775RToLugvVR4uxqmS7UBR01fdVBWJV+FWlnYJufFZ0CCDoEEDQIYCgQ4D5enbunoDceVXxdnB01P5hVZ4VhVVVilXK3XK9O+g6r1uVcWPP+fjwsBlT0A1jRYcAgg4BBB0CCDoEsDNuoN4db385PW3GysdAi3Kq2nlWlV1DrlEpH13t+uT4yoJTQdfNig4BBB0CCDoEEHQIoIw7A9UuuEHl2dg6d7KdnJw0Y73zWy6XzVjvfake1a3mQj8rOgQQdAgg6BBA0CGAx1QfQO8uuN7SqSqsGHb/7JarWdEhgKBDAEGHAIIOAeyMG6g6qKB651nl6y/c2/i6jxWPmn5UFFZT/V2vn794sxlTXI7Pig4BBB0CCDoEEHQIoIwbqHqvWlXQDSmTdr14G7ugq+6VR1eHsaJDAEGHAIIOAQQdAijjzkBVJvXughtS2lUl4NiF2tjzq+5LtVuOYazoEEDQIYCgQwBBhwDeGfcAet8Zd7M9l2EyH765+aOwF5/ZnVLsXue5Ft4ZV7OiQwBBhwCCDgEEHQLYGTfQP594uhh9uxlZr6cpPefzzbupXZpzdZ8f/Wt7n6lZ0SGAoEMAQYcAgg4BlHEPoCqEqneZze63JdHHf/59M/b8T3/ZjB0cHDRjx8fHzdidO3easdu3b7dzKVS75apdcNX39V6393e8/I2v/s95/qf6nXFdH2VmRYcIgg4BBB0CCDoEUMYNtFe8a63Xl596ohm7dOlSM3blkeeasd7ibWzVdav5Vb+j+r29htxnrOgQQdAhgKBDAEGHAMq4M/DajXYH3Scuty89+8f7m79crirA9j7z62bs1Y2vUJdnqz9+aePvu3r1ajNW3Zfq/jGMFR0CCDoEEHQIIOgQwAEOA929caXrBlaPWT753I9Gn89/W7//xsafnV9+dsSZ1N772feasZPO509v3X/LYQ2drOgQQNAhgKBDAEGHAHbGDVQVQr0FXfXutseqxzGrsdWq5xKzu4eHXX9X6S7yOuf3UTG26vwdirdhrOgQQNAhgKBDAEGHAHbGbUlV0FW75ap3o5UFXXWNonj77Ld+3PXZyruvf6cZu3V01IxVJVulKt6qXXCKt/FZ0SGAoEMAQYcAgg4B7IzbknIH3axvB91isdj4uteuXdv4s+++3o71Fm/L5bLr7xRv22FFhwCCDgEEHQIIOgSwM+4cGPJeut73r439fUq23WJFhwCCDgEEHQIIOgRQxj1Eeku7IZRs55MVHQIIOgQQdAgg6BBAGbdj5rP5xv+Qp377izGnUnrni1/b+LPr2VqRNxErOgQQdAgg6BBA0CGAMm5CQ4q36qCH3pNJq9Kut2Qbct2Kgm47rOgQQNAhgKBDAEGHAA5w2DG9ZVc11vvZd05eHXUuY3+W8VnRIYCgQwBBhwCCDgHsjNuS3l1w2yixjv7eHsJw+Mn2sIYhhvwOu+XGZ0WHAIIOAQQdAgg6BLAzbscMKd56C7DT09NRv69iF9xusaJDAEGHAIIOAQQdAijjzsAu7YKr7O/vN2PtXrnx9f7e6v7ZLTeMFR0CCDoEEHQIIOgQQBk3obF3wW2D3XLnkxUdAgg6BBB0CCDoEEAZtyW95dnDXFi5B9OxokMAQYcAgg4BBB0CKOPOwEs3v9+M/eDeD0e9xjYKq7Gv0ft91f2b3Rt1KnGs6BBA0CGAoEMAQYcAyrgzcPFvv2nGyoLud0VB917fNYbsMustxUbfyfZkO/TSF9r7Ut2/2ezlvmtQsqJDAEGHAIIOAQQdAijjtuQrV9ozHZ6/9UYzNr/8bNf3ncedcetftb/3T8XJrifbOE0ijBUdAgg6BBB0CCDoEGC+nnUd/MlAd2+0bdxisWj+7uIzN/u+8LufHzyn0bzyh64/+/DN9lnT5XLZjN26/5aTU0dmRYcAgg4BBB0CCDoEUMZNqCroKt++//ZZT2V0r914uuvvFG/bYUWHAIIOAQQdAgg6BFDGnQPz2XzUf9J6tm4KsG1cg+lY0SGAoEMAQYcAgg4BBB0CCDoEEHQIIOgQQNAhgKBDAEGHAIIOAQQdAgg6BHCa6o4Z+3HRqVS/w6Or07GiQwBBhwCCDgEEHQIo4ybUW7zt7e01Y6vVqhn7yeMvNmPLD9rTSiufm32qGVs83p72+s0PXth4fgq66VjRIYCgQwBBhwCCDgGUcTumKrbOo96Cju2wokMAQYcAgg4BBB0COE11QlM9krqN01SHzIXxWdEhgKBDAEGHAIIOAZRxEMCKDgEEHQIIOgQQdAgg6BBA0CGAoEMAQYcAgg4BBB0CCDoEEHQIIOgQQNAhwL8A7VYi/CpYn4cAAAAASUVORK5CYII=;" vertex="1" parent="1">
          <mxGeometry x="610" y="550" width="40" height="40" as="geometry" />
        </mxCell>
        <mxCell id="KkG0gUKBAMz0gUutYyn7-184" value="&lt;b&gt;Reply&amp;nbsp;&lt;/b&gt;&lt;b&gt;3: Gas Fees&lt;/b&gt;" style="text;html=1;align=center;verticalAlign=middle;whiteSpace=wrap;rounded=0;" vertex="1" parent="1">
          <mxGeometry x="507" y="554" width="110" height="10" as="geometry" />
        </mxCell>
        <mxCell id="KkG0gUKBAMz0gUutYyn7-185" style="edgeStyle=orthogonalEdgeStyle;rounded=1;orthogonalLoop=1;jettySize=auto;html=1;exitX=0.5;exitY=1;exitDx=0;exitDy=0;entryX=0.65;entryY=-0.111;entryDx=0;entryDy=0;entryPerimeter=0;curved=0;endArrow=classicThin;endFill=1;" edge="1" parent="1" target="KkG0gUKBAMz0gUutYyn7-181">
          <mxGeometry relative="1" as="geometry">
            <mxPoint x="385" y="540" as="sourcePoint" />
            <Array as="points">
              <mxPoint x="385" y="550" />
              <mxPoint x="293" y="550" />
            </Array>
          </mxGeometry>
        </mxCell>
        <mxCell id="KkG0gUKBAMz0gUutYyn7-186" style="edgeStyle=orthogonalEdgeStyle;rounded=1;orthogonalLoop=1;jettySize=auto;html=1;exitX=0.5;exitY=1;exitDx=0;exitDy=0;entryX=0.347;entryY=-0.065;entryDx=0;entryDy=0;entryPerimeter=0;curved=0;endArrow=classicThin;endFill=1;" edge="1" parent="1">
          <mxGeometry relative="1" as="geometry">
            <mxPoint x="385" y="540" as="sourcePoint" />
            <mxPoint x="476.75" y="569.8299999999999" as="targetPoint" />
            <Array as="points">
              <mxPoint x="385" y="550" />
              <mxPoint x="477" y="550" />
            </Array>
          </mxGeometry>
        </mxCell>
        <mxCell id="KkG0gUKBAMz0gUutYyn7-187" value="" style="rounded=1;whiteSpace=wrap;html=1;dashed=1;strokeWidth=2;fillColor=none;" vertex="1" parent="1">
          <mxGeometry x="390" y="571" width="250" height="18" as="geometry" />
        </mxCell>
        <mxCell id="KkG0gUKBAMz0gUutYyn7-188" value="&lt;blockquote style=&quot;margin: 0 0 0 40px; border: none; padding: 0px;&quot;&gt;&lt;div style=&quot;text-align: justify; padding-left: 5px; padding-right: 5px;&quot;&gt;&lt;div&gt;&lt;strong style=&quot;background-color: initial;&quot; data-end=&quot;80&quot; data-start=&quot;74&quot;&gt;A:&lt;/strong&gt;&lt;span style=&quot;background-color: initial;&quot;&gt;&amp;nbsp;&lt;/span&gt;[Priority Fees]&lt;span style=&quot;background-color: initial;&quot;&gt;, [Explanations]&lt;/span&gt;&lt;/div&gt;&lt;/div&gt;&lt;/blockquote&gt;" style="rounded=1;whiteSpace=wrap;html=1;strokeColor=none;fillColor=#CCCCFF;align=left;" vertex="1" parent="1">
          <mxGeometry x="240" y="732" width="250" height="20" as="geometry" />
        </mxCell>
        <mxCell id="KkG0gUKBAMz0gUutYyn7-189" value="" style="shape=image;verticalLabelPosition=bottom;labelBackgroundColor=default;verticalAlign=top;aspect=fixed;imageAspect=0;image=data:image/png,iVBORw0KGgoAAAANSUhEUgAAAPoAAAD6CAYAAACI7Fo9AAAACXBIWXMAAA7EAAAOxAGVKw4bAAAH8UlEQVR4nO3dz4tkVxkG4KoQRslA/oFgb0YYstFkEMZFw4CYwU1AXThbIQVqD4zIgBoXHdKLRAMTycB0FEpwOy5EyEY74qoFV/nhJkZcFbhzFUjQIJRLxfOJZ+rerls97/MsD111T93m5cDLuffM17P1DHi4PTL1BICzJ+gQQNAhgKBDAEGHAIIOAQQdAgg6BBB0CCDoEEDQIYCgQwBBhwCCDgEEHQIIOgQQdAgg6BBA0CGAoEMAQYcAgg4BBB0CCDoEEHQIIOgQQNAhgKBDAEGHAI9OPQH+v+P9+bk78vbgdD2feg78mxUdAgg6BBB0CCDoEEAZN6Hekm2xWDRjF/b2Nr7ux6tVM7Yqxj69v7/x9x3P+n6b0m47rOgQQNAhgKBDAEGHAMq4Lekt3q5fv775RToLugvVR4uxqmS7UBR01fdVBWJV+FWlnYJufFZ0CCDoEEDQIYCgQ4D5enbunoDceVXxdnB01P5hVZ4VhVVVilXK3XK9O+g6r1uVcWPP+fjwsBlT0A1jRYcAgg4BBB0CCDoEsDNuoN4db385PW3GysdAi3Kq2nlWlV1DrlEpH13t+uT4yoJTQdfNig4BBB0CCDoEEHQIoIw7A9UuuEHl2dg6d7KdnJw0Y73zWy6XzVjvfake1a3mQj8rOgQQdAgg6BBA0CGAx1QfQO8uuN7SqSqsGHb/7JarWdEhgKBDAEGHAIIOAeyMG6g6qKB651nl6y/c2/i6jxWPmn5UFFZT/V2vn794sxlTXI7Pig4BBB0CCDoEEHQIoIwbqHqvWlXQDSmTdr14G7ugq+6VR1eHsaJDAEGHAIIOAQQdAijjzkBVJvXughtS2lUl4NiF2tjzq+5LtVuOYazoEEDQIYCgQwBBhwDeGfcAet8Zd7M9l2EyH765+aOwF5/ZnVLsXue5Ft4ZV7OiQwBBhwCCDgEEHQLYGTfQP594uhh9uxlZr6cpPefzzbupXZpzdZ8f/Wt7n6lZ0SGAoEMAQYcAgg4BlHEPoCqEqneZze63JdHHf/59M/b8T3/ZjB0cHDRjx8fHzdidO3easdu3b7dzKVS75apdcNX39V6393e8/I2v/s95/qf6nXFdH2VmRYcIgg4BBB0CCDoEUMYNtFe8a63Xl596ohm7dOlSM3blkeeasd7ibWzVdav5Vb+j+r29htxnrOgQQdAhgKBDAEGHAMq4M/DajXYH3Scuty89+8f7m79crirA9j7z62bs1Y2vUJdnqz9+aePvu3r1ajNW3Zfq/jGMFR0CCDoEEHQIIOgQwAEOA929caXrBlaPWT753I9Gn89/W7//xsafnV9+dsSZ1N772feasZPO509v3X/LYQ2drOgQQNAhgKBDAEGHAHbGDVQVQr0FXfXutseqxzGrsdWq5xKzu4eHXX9X6S7yOuf3UTG26vwdirdhrOgQQNAhgKBDAEGHAHbGbUlV0FW75ap3o5UFXXWNonj77Ld+3PXZyruvf6cZu3V01IxVJVulKt6qXXCKt/FZ0SGAoEMAQYcAgg4B7IzbknIH3axvB91isdj4uteuXdv4s+++3o71Fm/L5bLr7xRv22FFhwCCDgEEHQIIOgSwM+4cGPJeut73r439fUq23WJFhwCCDgEEHQIIOgRQxj1Eeku7IZRs55MVHQIIOgQQdAgg6BBAGbdj5rP5xv+Qp377izGnUnrni1/b+LPr2VqRNxErOgQQdAgg6BBA0CGAMm5CQ4q36qCH3pNJq9Kut2Qbct2Kgm47rOgQQNAhgKBDAEGHAA5w2DG9ZVc11vvZd05eHXUuY3+W8VnRIYCgQwBBhwCCDgHsjNuS3l1w2yixjv7eHsJw+Mn2sIYhhvwOu+XGZ0WHAIIOAQQdAgg6BLAzbscMKd56C7DT09NRv69iF9xusaJDAEGHAIIOAQQdAijjzsAu7YKr7O/vN2PtXrnx9f7e6v7ZLTeMFR0CCDoEEHQIIOgQQBk3obF3wW2D3XLnkxUdAgg6BBB0CCDoEEAZtyW95dnDXFi5B9OxokMAQYcAgg4BBB0CKOPOwEs3v9+M/eDeD0e9xjYKq7Gv0ft91f2b3Rt1KnGs6BBA0CGAoEMAQYcAyrgzcPFvv2nGyoLud0VB917fNYbsMustxUbfyfZkO/TSF9r7Ut2/2ezlvmtQsqJDAEGHAIIOAQQdAijjtuQrV9ozHZ6/9UYzNr/8bNf3ncedcetftb/3T8XJrifbOE0ijBUdAgg6BBB0CCDoEGC+nnUd/MlAd2+0bdxisWj+7uIzN/u+8LufHzyn0bzyh64/+/DN9lnT5XLZjN26/5aTU0dmRYcAgg4BBB0CCDoEUMZNqCroKt++//ZZT2V0r914uuvvFG/bYUWHAIIOAQQdAgg6BFDGnQPz2XzUf9J6tm4KsG1cg+lY0SGAoEMAQYcAgg4BBB0CCDoEEHQIIOgQQNAhgKBDAEGHAIIOAQQdAgg6BHCa6o4Z+3HRqVS/w6Or07GiQwBBhwCCDgEEHQIo4ybUW7zt7e01Y6vVqhn7yeMvNmPLD9rTSiufm32qGVs83p72+s0PXth4fgq66VjRIYCgQwBBhwCCDgGUcTumKrbOo96Cju2wokMAQYcAgg4BBB0COE11QlM9krqN01SHzIXxWdEhgKBDAEGHAIIOAZRxEMCKDgEEHQIIOgQQdAgg6BBA0CGAoEMAQYcAgg4BBB0CCDoEEHQIIOgQQNAhwL8A7VYi/CpYn4cAAAAASUVORK5CYII=;" vertex="1" parent="1">
          <mxGeometry x="230" y="712" width="40" height="40" as="geometry" />
        </mxCell>
        <mxCell id="KkG0gUKBAMz0gUutYyn7-190" value="&lt;b&gt;Reply&amp;nbsp;&lt;/b&gt;&lt;b&gt;4: Priority Fees&lt;/b&gt;" style="text;html=1;align=center;verticalAlign=middle;whiteSpace=wrap;rounded=0;" vertex="1" parent="1">
          <mxGeometry x="253.5" y="718" width="132.5" height="10" as="geometry" />
        </mxCell>
        <mxCell id="KkG0gUKBAMz0gUutYyn7-200" style="edgeStyle=orthogonalEdgeStyle;rounded=0;orthogonalLoop=1;jettySize=auto;html=1;exitX=0.5;exitY=1;exitDx=0;exitDy=0;entryX=0.583;entryY=0.1;entryDx=0;entryDy=0;entryPerimeter=0;endArrow=classicThin;endFill=1;" edge="1" parent="1" source="KkG0gUKBAMz0gUutYyn7-177" target="KkG0gUKBAMz0gUutYyn7-188">
          <mxGeometry relative="1" as="geometry" />
        </mxCell>
      </root>
    </mxGraphModel>
  </diagram>
</mxfile>
